<svg xmlns="http://www.w3.org/2000/svg" viewBox="0 0 1000 266.46"><g fill="#F28D20"><path d="M250.87 90.39h50.51v176.07h-50.51zM300.09 13.35c-3.06-3-6.64-5.39-10.74-7.16-4.1-1.77-8.48-2.66-13.13-2.66s-9.03.89-13.13 2.66c-4.1 1.78-7.65 4.16-10.65 7.16s-5.39 6.55-7.16 10.65c-1.78 4.1-2.66 8.42-2.66 12.95 0 4.65.89 9 2.66 13.04 1.77 4.04 4.16 7.56 7.16 10.56 3 3 6.55 5.39 10.65 7.16 4.1 1.78 8.48 2.66 13.13 2.66s9.03-.89 13.13-2.66c4.1-1.77 7.68-4.16 10.74-7.16 3.06-3 5.48-6.52 7.25-10.56 1.77-4.04 2.66-8.38 2.66-13.04 0-4.53-.89-8.84-2.66-12.95-1.78-4.1-4.2-7.65-7.25-10.65zM339.57 12.15h50.51v254.31h-50.51zM428.28 12.15h50.51v254.31h-50.51zM566.2 13.35c-3.06-3-6.64-5.39-10.74-7.16-4.1-1.77-8.48-2.66-13.13-2.66s-9.03.89-13.13 2.66c-4.1 1.78-7.65 4.16-10.65 7.16s-5.39 6.55-7.16 10.65c-1.78 4.1-2.66 8.42-2.66 12.95 0 4.65.89 9 2.66 13.04 1.77 4.04 4.16 7.56 7.16 10.56 3 3 6.55 5.39 10.65 7.16 4.1 1.78 8.48 2.66 13.13 2.66s9.03-.89 13.13-2.66c4.1-1.77 7.68-4.16 10.74-7.16 3.06-3 5.48-6.52 7.25-10.56 1.77-4.04 2.66-8.38 2.66-13.04 0-4.53-.89-8.84-2.66-12.95-1.77-4.1-4.19-7.65-7.25-10.65zM516.98 90.39h50.51v176.07h-50.51zM755.74 91.71c-7.96-8.02-17.26-14.32-27.92-18.92-10.65-4.59-21.98-6.89-33.98-6.89-11.14 0-21.83 1.99-32.05 5.97-10.22 3.98-19.38 9.64-27.46 16.99l-16.53-19.1h-12.12v196.69h50.14v-112.4c0-5.14.98-10.01 2.94-14.6s4.65-8.6 8.08-12.03c3.43-3.43 7.47-6.12 12.12-8.08 4.65-1.96 9.61-2.94 14.88-2.94 5.14 0 9.98.98 14.51 2.94 4.53 1.96 8.51 4.65 11.94 8.08 3.43 3.43 6.12 7.44 8.08 12.03 1.96 4.59 2.94 9.46 2.94 14.6v112.4h50.14v-112.4c0-12.12-2.3-23.54-6.89-34.25-4.59-10.7-10.87-20.07-18.82-28.09zM1000 70.13h-57.67l-74.75 94.77V12.15h-50.5v254.31h50.5V241.3l34.9-46.28 39.85 71.44H1000l-65.2-114.42zM109.03 48.39c-27.56 0-52.71 10.25-71.91 27.11 4.81-11.3 13.79-20.41 25.03-25.34V39.99C62.15 17.9 44.25 0 22.17 0H0V157.43c0 60.22 48.82 109.03 109.03 109.03 60.22 0 109.03-48.82 109.03-109.03.01-60.22-48.81-109.04-109.03-109.04zm0 167.57c-32.35 0-58.58-26.23-58.58-58.58 0-.13.01-.25.01-.38H167.6c0 .13.01.25.01.38 0 32.35-26.22 58.58-58.58 58.58zM16.23 3.52"/></g></svg>